ply
format ascii 1.0
element vertex 192
property float x
property float y
property float z
property float nx
property float ny
property float nz
element face 64
property list uchar int vertex_indices
end_header
0.169203 0.7 0.9 0.422349 0.906315 -0.0146421
0.152403 0.6 0.9 0.735998 0.674674 -0.0558675
0.2 0.7 0.930797 0.544721 0.82423 0.154675
0.152403 0.6 0.9 0.735998 0.674674 -0.0558675
0.2 0.6 0.947597 0.830755 0.425259 0.359166
0.2 0.7 0.930797 0.544721 0.82423 0.154675
0.185802 0.7 0.8 0.406806 0.78158 -0.472908
0.159617 0.6 0.8 0.469201 0.404801 -0.784848
0.152403 0.6 0.9 0.735827 0.674881 -0.0556286
0.169203 0.7 0.9 0.422324 0.906405 -0.00852659
0.185802 0.7 0.8 0.406806 0.78158 -0.472908
0.152403 0.6 0.9 0.735827 0.674881 -0.0556286
0.2 0.7 0.774851 0.419522 0.728692 -0.541303
0.2 0.6 0.712382 0.422702 0.339687 -0.8402
0.185802 0.7 0.8 0.417137 0.775034 -0.474678
0.2 0.6 0.712382 0.422702 0.339687 -0.8402
0.159617 0.6 0.8 0.466756 0.407215 -0.785057
0.185802 0.7 0.8 0.417137 0.775034 -0.474678
0.2 0.6 0.712382 0.422608 0.355218 -0.8338
0.2 0.5 0.712382 0.431754 -0.0486449 -0.900679
0.159617 0.6 0.8 0.465408 0.404899 -0.787053
0.2 0.5 0.712382 0.431754 -0.0486449 -0.900679
0.159617 0.5 0.8 0.473016 -0.353989 -0.806813
0.159617 0.6 0.8 0.465408 0.404899 -0.787053
0.2 0.5 0.712382 0.43188 -0.0479456 -0.900656
0.2 0.4 0.774851 0.479482 -0.524583 -0.703499
0.159617 0.5 0.8 0.472996 -0.354004 -0.806818
0.2 0.4 0.774851 0.479482 -0.524583 -0.703499
0.185802 0.4 0.8 0.450432 -0.673568 -0.586018
0.159617 0.5 0.8 0.472996 -0.354004 -0.806818
0.159617 0.5 0.8 0.47166 -0.357391 -0.806107
0.185802 0.4 0.8 0.44966 -0.678733 -0.580627
0.169203 0.4 0.9 0.440946 -0.897521 -0.00478458
0.152403 0.5 0.9 0.739402 -0.670886 -0.0565396
0.159617 0.5 0.8 0.47166 -0.357391 -0.806107
0.169203 0.4 0.9 0.440946 -0.897521 -0.00478458
0.152403 0.5 0.9 0.739662 -0.670567 -0.0569201
0.169203 0.4 0.9 0.438025 -0.898963 -0.00026941
0.2 0.5 0.947597 0.840501 -0.398729 0.366843
0.169203 0.4 0.9 0.438025 -0.898963 -0.00026941
0.2 0.4 0.930797 0.581796 -0.78482 0.213475
0.2 0.5 0.947597 0.840501 -0.398729 0.366843
0.169203 0.4 0.9 0.4427 -0.896613 0.0100978
0.2 0.340259 0.9 0.48642 -0.853375 0.187473
0.2 0.4 0.930797 0.585447 -0.77882 0.225146
0.2 0.340259 0.9 0.486674 -0.853075 0.188178
0.26094 0.4 0.9 0.814792 -0.570721 0.101936
0.2 0.4 0.930797 0.576811 -0.78651 0.220662
0.225375 0.4 0.8 0.650374 -0.573077 -0.498594
0.26094 0.4 0.9 0.827069 -0.553644 0.0971303
0.2 0.369179 0.8 0.504463 -0.692579 -0.515608
0.26094 0.4 0.9 0.827069 -0.553644 0.0971303
0.2 0.340259 0.9 0.496059 -0.844372 0.202388
0.2 0.369179 0.8 0.504463 -0.692579 -0.515608
0.2 0.369179 0.8 0.499788 -0.664071 -0.556077
0.2 0.4 0.774851 0.506948 -0.558647 -0.656443
0.225375 0.4 0.8 0.641254 -0.55537 -0.529488
0.26094 0.4 0.9 0.822035 -0.565712 0.0650245
0.3 0.5 0.833482 0.945641 -0.0978258 -0.310151
0.3 0.462072 0.9 0.961785 -0.271756 0.0334473
0.288533 0.5 0.8 0.893624 -0.0982488 -0.437931
0.3 0.5 0.833482 0.945641 -0.0978258 -0.310151
0.26094 0.4 0.9 0.822035 -0.565712 0.0650245
0.225375 0.4 0.8 0.69083 -0.518062 -0.504347
0.288533 0.5 0.8 0.893624 -0.0982488 -0.437931
0.26094 0.4 0.9 0.822035 -0.565712 0.0650245
0.3 0.6 0.833482 0.910978 0.30427 -0.278458
0.288533 0.5 0.8 0.890881 -0.0611245 -0.450105
0.288533 0.6 0.8 0.84826 0.319182 -0.422585
0.3 0.6 0.833482 0.910978 0.30427 -0.278458
0.3 0.5 0.833482 0.951826 -0.0764169 -0.296964
0.288533 0.5 0.8 0.890881 -0.0611245 -0.450105
0.288533 0.6 0.8 0.835883 0.340056 -0.430885
0.3 0.637928 0.9 0.888658 0.458553 -0.00395761
0.3 0.6 0.833482 0.895346 0.335071 -0.293398
0.26094 0.7 0.9 0.714405 0.699714 -0.00508845
0.3 0.637928 0.9 0.888658 0.458553 -0.00395761
0.288533 0.6 0.8 0.835883 0.340056 -0.430885
0.225375 0.7 0.8 0.556686 0.69808 -0.450316
0.26094 0.7 0.9 0.714405 0.699714 -0.00508845
0.288533 0.6 0.8 0.835883 0.340056 -0.430885
0.26094 0.7 0.9 0.703491 0.710627 -0.0105028
0.225375 0.7 0.8 0.551364 0.721648 -0.418596
0.2 0.748983 0.9 0.444813 0.895571 -0.00968996
0.225375 0.7 0.8 0.551364 0.721648 -0.418596
0.2 0.720749 0.8 0.43103 0.802246 -0.413055
0.2 0.748983 0.9 0.444813 0.895571 -0.00968996
0.225375 0.7 0.8 0.541778 0.729554 -0.417405
0.2 0.7 0.774851 0.425689 0.726577 -0.539328
0.2 0.720749 0.8 0.418864 0.808966 -0.412464
0.2 0.7 0.930797 0.534914 0.832789 0.142581
0.26094 0.7 0.9 0.686941 0.72656 -0.0149263
0.2 0.748983 0.9 0.421036 0.906928 -0.0145213
0.318733 0.6 0.9 0.935618 0.351677 0.0307075
0.3 0.6 0.833482 0.893138 0.353572 -0.278014
0.3 0.637928 0.9 0.867586 0.497095 0.0138326
0.3 0.6 0.914842 0.94392 0.319586 0.0829412
0.318733 0.6 0.9 0.944659 0.327842 0.0118234
0.3 0.637928 0.9 0.878967 0.476651 0.0148743
0.318733 0.5 0.9 0.997244 -0.0513863 0.0535097
0.318733 0.6 0.9 0.945035 0.326041 0.0246321
0.3 0.5 0.914842 0.988539 -0.107529 0.105962
0.318733 0.6 0.9 0.945035 0.326041 0.0246321
0.3 0.6 0.914842 0.938091 0.339588 0.068304
0.3 0.5 0.914842 0.988539 -0.107529 0.105962
0.3 0.462072 0.9 0.967412 -0.246167 0.0592953
0.318733 0.5 0.9 0.997403 -0.0510879 0.0507711
0.3 0.5 0.914842 0.985789 -0.128191 0.108573
0.2 0.5 0.947597 0.84306 -0.393374 0.366752
0.3 0.5 0.914842 0.986271 -0.126144 0.106568
0.3 0.6 0.914842 0.948837 0.303843 0.0859469
0.2 0.6 0.947597 0.833031 0.421555 0.35826
0.2 0.5 0.947597 0.84306 -0.393374 0.366752
0.3 0.6 0.914842 0.948837 0.303843 0.0859469
0.3 0.5 0.833482 0.960161 -0.0904154 -0.264416
0.3 0.6 0.833482 0.907411 0.319008 -0.273568
0.318733 0.5 0.9 0.9972 -0.0521127 0.0536362
0.3 0.6 0.833482 0.907411 0.319008 -0.273568
0.318733 0.6 0.9 0.942737 0.331119 0.0400828
0.318733 0.5 0.9 0.9972 -0.0521127 0.0536362
0.3 0.462072 0.9 0.967607 -0.2484 0.0450896
0.3 0.5 0.833482 0.955094 -0.0581935 -0.290531
0.318733 0.5 0.9 0.996288 -0.0686395 0.0519499
0.26094 0.4 0.9 0.837003 -0.53897 0.094541
0.3 0.462072 0.9 0.967992 -0.247105 0.0439413
0.2 0.4 0.930797 0.593333 -0.774849 0.218091
0.2 0.4 0.930797 0.593333 -0.774849 0.218091
0.3 0.462072 0.9 0.967992 -0.247105 0.0439413
0.3 0.5 0.914842 0.987914 -0.112557 0.10657
0.2 0.4 0.930797 0.593333 -0.774849 0.218091
0.3 0.5 0.914842 0.987914 -0.112557 0.10657
0.2 0.5 0.947597 0.845631 -0.389051 0.365442
0.2 0.369179 0.8 0.521983 -0.673395 -0.523519
0.2 0.340259 0.9 0.53407 -0.822813 0.194286
0.185802 0.4 0.8 0.459501 -0.696703 -0.550875
0.2 0.340259 0.9 0.53407 -0.822813 0.194286
0.169203 0.4 0.9 0.451063 -0.892391 0.0134366
0.185802 0.4 0.8 0.459501 -0.696703 -0.550875
0.2 0.4 0.774851 0.481257 -0.555126 -0.6784
0.2 0.369179 0.8 0.50078 -0.694319 -0.516857
0.185802 0.4 0.8 0.448519 -0.684947 -0.574177
0.2 0.4 0.774851 0.4785 -0.548073 -0.686042
0.2 0.5 0.712382 0.438991 -0.0969703 -0.893243
0.225375 0.4 0.8 0.638496 -0.555223 -0.532965
0.2 0.5 0.712382 0.438991 -0.0969703 -0.893243
0.288533 0.5 0.8 0.889451 -0.100301 -0.445888
0.225375 0.4 0.8 0.638496 -0.555223 -0.532965
0.2 0.5 0.712382 0.435377 -0.0896614 -0.895772
0.2 0.6 0.712382 0.422977 0.319446 -0.847965
0.288533 0.5 0.8 0.882291 -0.0828115 -0.463363
0.2 0.6 0.712382 0.422977 0.319446 -0.847965
0.288533 0.6 0.8 0.837815 0.323804 -0.439566
0.288533 0.5 0.8 0.882291 -0.0828115 -0.463363
0.2 0.720749 0.8 0.425668 0.780705 -0.4575
0.2 0.7 0.774851 0.422276 0.713168 -0.55953
0.185802 0.7 0.8 0.42612 0.758786 -0.492611
0.2 0.6 0.712382 0.423756 0.358197 -0.831941
0.2 0.7 0.774851 0.420094 0.725759 -0.544789
0.288533 0.6 0.8 0.820308 0.361858 -0.442893
0.2 0.7 0.774851 0.420094 0.725759 -0.544789
0.225375 0.7 0.8 0.547857 0.714235 -0.435569
0.288533 0.6 0.8 0.820308 0.361858 -0.442893
0.159617 0.6 0.8 0.46498 0.400737 -0.789432
0.159617 0.5 0.8 0.474019 -0.352123 -0.807041
0.152403 0.5 0.9 0.740537 -0.669649 -0.0563431
0.152403 0.6 0.9 0.735879 0.674743 -0.0566016
0.159617 0.6 0.8 0.46498 0.400737 -0.789432
0.152403 0.5 0.9 0.740537 -0.669649 -0.0563431
0.2 0.748983 0.9 0.428993 0.902792 -0.0305306
0.2 0.720749 0.8 0.431544 0.77707 -0.458183
0.169203 0.7 0.9 0.428531 0.903382 -0.01622
0.2 0.720749 0.8 0.431544 0.77707 -0.458183
0.185802 0.7 0.8 0.417133 0.77502 -0.474703
0.169203 0.7 0.9 0.428531 0.903382 -0.01622
0.152403 0.6 0.9 0.735663 0.675034 -0.0559344
0.152403 0.5 0.9 0.740586 -0.669589 -0.0564207
0.2 0.6 0.947597 0.830654 0.426266 0.358207
0.152403 0.5 0.9 0.740586 -0.669589 -0.0564207
0.2 0.5 0.947597 0.84558 -0.388934 0.365684
0.2 0.6 0.947597 0.830654 0.426266 0.358207
0.2 0.748983 0.9 0.433916 0.900953 0.000212482
0.169203 0.7 0.9 0.428531 0.903382 -0.0162212
0.2 0.7 0.930797 0.541472 0.825188 0.160854
0.3 0.637928 0.9 0.867813 0.496681 0.0144293
0.26094 0.7 0.9 0.683477 0.729944 0.0063666
0.3 0.6 0.914842 0.936821 0.338529 0.0881126
0.3 0.6 0.914842 0.936821 0.338529 0.0881126
0.26094 0.7 0.9 0.683477 0.729944 0.0063666
0.2 0.7 0.930797 0.550427 0.8187 0.163587
0.3 0.6 0.914842 0.936821 0.338529 0.0881126
0.2 0.7 0.930797 0.550427 0.8187 0.163587
0.2 0.6 0.947597 0.834019 0.417145 0.361111
3 0 1 2
3 3 4 5
3 6 7 8
3 9 10 11
3 12 13 14
3 15 16 17
3 18 19 20
3 21 22 23
3 24 25 26
3 27 28 29
3 30 31 32
3 33 34 35
3 36 37 38
3 39 40 41
3 42 43 44
3 45 46 47
3 48 49 50
3 51 52 53
3 54 55 56
3 57 58 59
3 60 61 62
3 63 64 65
3 66 67 68
3 69 70 71
3 72 73 74
3 75 76 77
3 78 79 80
3 81 82 83
3 84 85 86
3 87 88 89
3 90 91 92
3 93 94 95
3 96 97 98
3 99 100 101
3 102 103 104
3 105 106 107
3 108 109 110
3 111 112 113
3 114 115 116
3 117 118 119
3 120 121 122
3 123 124 125
3 126 127 128
3 129 130 131
3 132 133 134
3 135 136 137
3 138 139 140
3 141 142 143
3 144 145 146
3 147 148 149
3 150 151 152
3 153 154 155
3 156 157 158
3 159 160 161
3 162 163 164
3 165 166 167
3 168 169 170
3 171 172 173
3 174 175 176
3 177 178 179
3 180 181 182
3 183 184 185
3 186 187 188
3 189 190 191
